<?xml version="1.0" standalone="no"?>
<!DOCTYPE svg PUBLIC "-//W3C//DTD SVG 20010904//EN"
    "http://www.w3.org/TR/2001/REC-SVG-20010904/DTD/svg10.dtd">
<svg version="1.0" xmlns="http://www.w3.org/2000/svg"
     width="700.000000pt" height="700.000000pt" viewBox="0 0 700.000000 700.000000"
     preserveAspectRatio="xMidYMid meet">
    <metadata>
        Created by potrace 1.11, written by Peter Selinger 2001-2013
    </metadata>
    <g transform="translate(0.000000,700.000000) scale(0.100000,-0.100000)"
       fill="#000000" stroke="none">
        <path d="M3250 6864 c-19 -2 -80 -9 -135 -14 -421 -44 -874 -188 -1249 -397
-763 -424 -1337 -1131 -1589 -1956 -109 -356 -154 -696 -144 -1082 7 -240 22
-373 67 -595 275 -1344 1377 -2406 2730 -2629 221 -37 320 -44 560 -45 246 0
423 16 630 55 1026 196 1903 857 2374 1789 183 360 293 728 342 1140 21 173
24 559 5 720 -77 673 -316 1251 -730 1770 -94 118 -306 337 -426 440 -491 422
-1109 697 -1765 785 -118 16 -582 29 -670 19z m456 -840 c93 -6 306 -38 343
-52 24 -9 129 123 -1202 -1507 -252 -308 -461 -561 -465 -562 -8 -2 -866 1189
-870 1209 -4 19 184 215 302 314 297 250 676 443 1048 534 281 69 509 86 844
64z m679 -151 c126 -47 326 -142 408 -193 l48 -30 -222 -438 c-532 -1050 -611
-1202 -621 -1202 -6 0 -157 -12 -335 -26 -179 -14 -327 -23 -330 -20 -5 4 770
1756 851 1924 24 51 22 51 201 -15z m948 -622 c63 -66 153 -171 200 -233 84
-113 206 -307 240 -384 l19 -41 -104 -100 c-346 -334 -413 -393 -443 -393 -16
0 -219 -16 -450 -34 -231 -19 -421 -33 -422 -32 -4 3 832 1336 838 1336 4 0
59 -54 122 -119z m-4150 -795 c29 -19 279 -183 557 -366 278 -182 504 -337
504 -344 -1 -7 -98 -134 -215 -282 -118 -148 -238 -299 -267 -336 -41 -52 -60
-68 -85 -72 -53 -8 -697 -49 -702 -44 -10 9 -36 190 -46 321 -28 348 30 737
161 1075 17 45 34 82 37 82 2 0 28 -15 56 -34z m4483 -600 c196 -63 359 -118
363 -121 3 -4 6 -109 6 -233 -1 -164 -6 -259 -18 -342 -70 -457 -253 -876
-539 -1231 -42 -52 -132 -148 -199 -215 -118 -114 -299 -264 -321 -264 -5 0
-71 55 -146 123 -76 68 -271 244 -435 391 -210 188 -297 273 -292 283 3 9 258
376 567 817 309 440 578 824 597 853 20 29 42 52 48 53 7 0 173 -51 369 -114z
m-1846 -733 c0 -5 -167 -481 -371 -1059 l-372 -1051 -76 14 c-168 31 -451 116
-451 135 0 9 809 1919 816 1927 3 3 357 36 432 40 12 0 22 -2 22 -6z m-713
-50 c-2 -5 -204 -361 -447 -793 -243 -432 -460 -816 -482 -853 l-39 -68 -41
23 c-80 45 -288 210 -396 313 -178 171 -338 374 -453 578 l-50 88 67 72 c380
404 511 537 529 538 11 0 301 24 645 54 708 60 673 57 667 48z m1478 -1843
c-9 -14 -263 -110 -384 -145 -271 -78 -610 -117 -861 -99 -69 5 -125 13 -125
17 0 4 180 266 399 582 l399 574 288 -461 c159 -254 286 -464 284 -468z"/>
    </g>
</svg>
